<?xml version="1.0" standalone="no"?>
<!DOCTYPE svg PUBLIC "-//W3C//DTD SVG 20010904//EN"
 "http://www.w3.org/TR/2001/REC-SVG-20010904/DTD/svg10.dtd">
<svg version="1.0" xmlns="http://www.w3.org/2000/svg"
 width="762.000000pt" height="762.000000pt" viewBox="0 0 762.000000 762.000000"
 preserveAspectRatio="xMidYMid meet">
<metadata>
Created by potrace 1.14, written by Peter Selinger 2001-2017
</metadata>
<g transform="translate(0.000000,762.000000) scale(0.100000,-0.100000)"
fill="#000000" stroke="none">
<path d="M2227 6803 c-1 0 -81 -4 -177 -8 -188 -7 -229 -9 -360 -20 -185 -16
-258 -24 -380 -40 -21 -3 -54 -8 -72 -10 -39 -5 -105 -16 -133 -22 -11 -2 -36
-6 -55 -9 -32 -4 -77 -12 -165 -29 -16 -4 -39 -8 -50 -10 -11 -2 -42 -9 -70
-15 -27 -6 -59 -14 -70 -16 -11 -3 -31 -7 -45 -10 -14 -3 -43 -10 -65 -16 -22
-5 -48 -12 -58 -14 -89 -17 -495 -140 -512 -155 -13 -13 -13 -3199 0 -3200 16
-2 14 -2 140 31 66 17 129 33 140 34 11 2 27 6 35 9 14 5 178 44 225 53 11 2
31 6 45 9 14 3 36 7 50 10 14 3 48 9 75 15 28 5 64 12 80 15 17 3 41 7 55 10
14 2 70 11 125 20 55 9 111 18 125 20 14 2 63 9 110 15 47 6 101 13 120 15 19
3 58 7 85 10 28 3 75 8 105 11 55 5 91 8 245 20 427 32 949 35 1455 9 152 -8
280 -15 345 -20 33 -3 92 -7 130 -10 75 -5 188 -15 245 -21 19 -2 69 -6 112
-9 42 -3 91 -8 110 -10 18 -2 60 -6 93 -9 33 -4 78 -9 100 -11 22 -2 64 -7 93
-10 101 -10 157 -16 187 -20 17 -2 57 -7 90 -10 33 -4 74 -8 90 -10 17 -2 57
-6 90 -10 33 -3 74 -8 90 -11 56 -8 110 -14 165 -20 30 -2 69 -7 85 -9 27 -4
62 -8 165 -20 19 -2 46 -6 60 -9 14 -3 54 -8 90 -11 108 -11 124 -12 160 -18
37 -6 116 -16 190 -23 25 -2 56 -5 70 -7 l25 -2 0 1598 c0 880 -3 1601 -7
1604 -11 6 -38 11 -105 18 -122 13 -149 16 -188 22 -43 6 -87 11 -150 18 -48
4 -107 12 -195 25 -72 11 -118 17 -200 26 -30 3 -66 7 -80 9 -80 12 -311 43
-375 50 -22 2 -60 7 -85 10 -80 11 -104 14 -160 20 -83 10 -121 14 -160 19
-19 2 -62 7 -95 11 -33 3 -76 8 -95 11 -19 2 -60 6 -90 9 -30 3 -71 8 -90 11
-38 5 -134 14 -190 19 -19 1 -66 5 -105 9 -38 4 -99 9 -135 11 -36 3 -85 7
-110 10 -25 2 -90 7 -145 10 -55 4 -120 8 -145 10 -135 11 -875 27 -883 18z
m200 -395 c-60 -50 -216 -210 -222 -228 -4 -11 -10 -20 -15 -20 -4 0 -17 -15
-28 -32 -11 -18 -35 -58 -53 -88 -36 -57 -119 -232 -119 -248 0 -5 -7 -22 -15
-39 -8 -16 -16 -38 -18 -49 -2 -10 -7 -26 -10 -34 -8 -20 -28 -99 -33 -130 -2
-14 -7 -36 -10 -50 -3 -14 -8 -38 -10 -55 -2 -16 -7 -52 -10 -80 -15 -103 -8
-403 12 -505 3 -14 9 -47 14 -75 5 -27 16 -75 25 -105 8 -30 17 -62 19 -70 16
-58 75 -200 116 -277 74 -138 162 -257 260 -350 25 -24 43 -44 40 -44 -3 -1
-52 -3 -110 -5 -201 -5 -511 -24 -680 -39 -135 -13 -241 -24 -285 -30 -16 -2
-52 -7 -80 -10 -68 -8 -113 -14 -160 -22 -58 -10 -85 -11 -89 -4 -2 3 -7 38
-10 78 -13 145 -81 287 -187 394 -74 75 -197 140 -310 166 l-76 17 0 549 0
548 26 11 c14 5 34 11 44 13 71 15 192 91 271 170 51 52 126 164 126 189 0 6
4 16 9 22 19 20 44 152 43 230 l0 81 91 18 c51 9 99 18 107 20 8 1 31 5 50 9
19 3 55 8 80 11 25 3 56 7 70 10 27 5 72 10 160 20 30 4 66 8 80 10 22 3 102
11 215 20 22 2 94 7 160 10 66 4 121 7 122 8 1 1 95 3 210 5 l208 2 -28 -22z
m1263 -41 c19 -3 67 -8 105 -12 74 -7 132 -13 205 -21 25 -2 65 -6 90 -8 25
-3 65 -7 90 -11 25 -3 61 -8 80 -10 19 -2 58 -7 85 -10 28 -4 64 -8 80 -10 42
-4 134 -15 170 -21 17 -2 48 -6 70 -8 22 -3 56 -7 75 -10 40 -5 105 -14 170
-21 102 -12 96 -6 98 -95 7 -332 260 -596 599 -624 12 -1 25 -5 29 -9 6 -6 10
-168 4 -192 -1 -5 -2 -14 -1 -20 6 -28 2 -495 -3 -503 -3 -6 -3 -13 1 -15 7
-5 9 -76 3 -102 -1 -5 -1 -14 0 -20 1 -8 2 -205 0 -227 0 -3 -30 -7 -67 -7
-38 0 -77 -3 -88 -6 -11 -2 -38 -9 -61 -14 -71 -18 -168 -67 -229 -117 -61
-49 -125 -114 -125 -126 0 -4 -6 -13 -14 -21 -29 -28 -84 -161 -91 -217 -2
-14 -4 -26 -5 -27 -5 -6 -8 -26 -9 -74 l-1 -51 -62 7 c-35 3 -76 7 -93 10 -16
2 -59 6 -95 10 -36 4 -75 8 -88 10 -12 2 -57 7 -100 10 -42 4 -84 9 -93 10 -9
2 -56 6 -105 10 -49 4 -91 9 -94 10 -3 2 -41 6 -85 10 -44 3 -102 8 -130 11
-27 3 -75 7 -105 9 -30 2 -93 7 -140 11 -47 4 -109 7 -137 8 -29 0 -53 2 -53
4 0 2 44 47 98 100 53 54 123 137 155 185 131 195 234 455 264 667 2 19 7 46
10 60 9 49 11 406 2 470 -14 104 -16 110 -40 210 -13 52 -23 97 -24 100 0 3
-3 10 -6 15 -4 6 -9 22 -12 36 -4 14 -13 42 -22 62 -8 20 -15 39 -15 42 0 3
-21 47 -46 97 -65 130 -150 251 -243 350 -45 47 -81 88 -81 90 0 5 8 5 80 -5z
m-612 -375 c5 -6 7 -32 5 -57 -3 -35 0 -45 12 -46 17 -2 15 -1 75 -18 25 -7
51 -18 58 -23 6 -6 12 -7 12 -4 0 8 65 -39 90 -65 46 -47 76 -135 79 -237 2
-54 -1 -72 -11 -73 -32 -3 -341 0 -344 4 -2 1 -4 37 -5 78 -2 73 -11 107 -33
121 -21 14 -47 8 -71 -16 -22 -22 -24 -31 -21 -90 2 -40 10 -76 20 -92 10 -14
56 -50 104 -81 48 -31 123 -79 167 -107 107 -68 151 -110 183 -170 28 -55 27
-54 39 -106 9 -40 9 -213 1 -250 -16 -69 -33 -110 -64 -153 -58 -80 -115 -113
-281 -162 -8 -3 -12 -24 -12 -59 1 -30 -2 -59 -5 -65 -8 -12 -136 -12 -151 0
-6 4 -10 33 -8 63 1 47 -1 58 -18 66 -10 6 -19 9 -19 6 0 -7 -101 28 -131 45
-58 33 -118 92 -139 137 -31 64 -40 103 -46 197 -7 104 -7 117 5 124 5 4 85 6
178 6 l168 0 2 -100 c4 -163 6 -176 34 -189 26 -13 33 -14 66 -3 27 10 37 51
34 134 -5 148 -16 163 -206 287 -66 43 -121 82 -123 87 -2 5 -8 9 -14 9 -36 0
-128 153 -143 236 -9 49 -10 149 -3 190 17 94 89 188 176 227 26 12 49 22 52
22 36 9 76 16 80 14 3 -1 15 3 27 10 20 10 22 18 19 61 -1 27 2 51 7 53 27 9
148 1 155 -11z"/>
<path d="M6272 5843 c-4 -10 -8 -236 -7 -503 l0 -485 23 -1 c12 -1 25 -3 27
-6 2 -2 7 -35 10 -73 10 -116 22 -242 30 -320 3 -22 7 -67 10 -100 3 -33 7
-78 10 -100 2 -22 7 -76 11 -120 4 -44 8 -91 9 -105 2 -14 6 -56 9 -95 4 -38
9 -91 12 -117 2 -27 1 -48 -3 -49 -29 -1 -98 -12 -121 -18 l-27 -7 1 -380 c0
-275 -3 -381 -12 -386 -6 -4 -22 -5 -35 -3 -45 9 -95 15 -154 20 -33 2 -60 5
-60 5 0 2 -24 5 -105 15 -36 4 -72 8 -80 10 -8 1 -44 6 -80 10 -36 4 -74 9
-85 12 -19 5 -628 14 -800 13 -361 -3 -882 -20 -1055 -35 -65 -6 -113 -9 -270
-20 -47 -3 -101 -8 -120 -10 -19 -3 -60 -7 -90 -10 -57 -5 -107 -10 -200 -21
-30 -3 -68 -8 -85 -10 -16 -2 -41 -5 -55 -8 -14 -2 -49 -7 -79 -10 -46 -6
-131 -19 -261 -40 -14 -3 -59 -10 -100 -16 -41 -6 -82 -14 -90 -17 -8 -3 -28
-7 -45 -9 -16 -2 -41 -6 -55 -9 -14 -3 -37 -7 -53 -10 -15 -3 -60 -12 -100
-21 -39 -8 -83 -18 -96 -20 -20 -4 -102 -24 -161 -39 -124 -31 -125 -31 -128
3 -3 36 -7 58 -23 112 -7 25 -13 47 -14 50 -4 22 -63 123 -96 164 -44 55 -126
128 -173 152 -28 15 -50 15 -171 -3 -22 -3 -56 -7 -75 -9 -19 -1 -35 -3 -35
-4 0 -1 -9 -3 -20 -4 -11 -2 -42 -6 -70 -10 -27 -4 -66 -10 -85 -12 -19 -3
-46 -7 -60 -10 -14 -3 -38 -7 -55 -9 -76 -11 -98 -16 -107 -21 -8 -5 -5 -101
8 -194 2 -20 6 -58 9 -85 2 -28 6 -72 9 -100 3 -27 8 -78 11 -112 6 -71 16
-174 21 -218 1 -16 6 -64 9 -105 4 -41 8 -91 10 -110 11 -114 17 -175 19 -177
1 -1 37 10 79 26 42 16 77 27 77 24 0 -3 6 -1 13 4 9 8 67 31 97 38 3 1 12 5
20 8 25 11 351 117 374 121 11 3 59 16 106 30 111 32 238 67 270 72 14 3 39 9
55 14 42 13 411 91 445 95 9 0 20 3 25 7 6 3 20 4 32 3 13 -1 23 1 23 5 0 3 8
6 18 6 18 1 92 12 132 20 30 5 86 14 120 19 14 2 45 6 70 10 25 4 56 8 70 10
25 3 73 10 140 19 19 3 66 8 104 11 38 3 72 8 75 9 3 2 48 7 99 10 51 4 101 9
110 10 9 2 58 7 107 10 50 4 115 9 145 11 53 5 183 13 325 20 224 11 586 18
995 18 453 0 774 -6 1618 -28 l233 -6 -6 78 c-4 43 -9 98 -11 123 -3 25 -7 70
-9 100 -2 30 -7 73 -9 95 -3 22 -8 72 -12 110 -3 39 -7 86 -10 105 -2 19 -7
67 -9 105 -3 39 -7 88 -10 110 -7 61 -17 156 -20 200 -8 97 -15 174 -21 225
-3 30 -7 75 -10 100 -2 25 -6 70 -9 100 -10 93 -15 149 -20 203 -2 28 -7 77
-10 107 -3 30 -8 78 -10 105 -3 28 -7 73 -10 100 -3 28 -7 79 -10 115 -10 115
-13 144 -20 210 -4 36 -9 81 -10 100 -6 80 -15 176 -20 214 -2 23 -7 66 -10
96 -3 30 -7 75 -10 100 -2 25 -7 76 -9 114 -3 39 -8 88 -10 110 -3 23 -8 68
-11 101 -4 32 -8 62 -10 65 -2 3 -70 7 -151 8 -81 2 -151 5 -155 8 -5 2 -12
-3 -17 -13z"/>
<path d="M6951 5060 c-26 -6 -29 -28 -17 -125 3 -22 8 -69 11 -105 3 -36 7
-85 10 -110 11 -103 15 -148 20 -210 3 -36 7 -86 10 -113 3 -26 7 -71 10 -100
3 -28 7 -72 10 -97 3 -25 7 -74 10 -110 10 -118 18 -201 30 -316 2 -17 6 -58
9 -90 3 -33 8 -85 11 -117 3 -32 8 -81 10 -110 3 -29 7 -68 9 -87 3 -19 7 -66
10 -105 3 -38 8 -92 11 -120 2 -27 7 -77 10 -110 4 -33 8 -78 10 -100 2 -22 6
-67 9 -100 8 -83 16 -172 21 -220 3 -22 7 -71 11 -109 3 -39 7 -73 10 -77 2
-4 2 -14 -2 -22 -4 -12 -23 -14 -97 -12 -51 2 -208 6 -350 10 l-258 6 2 -91
c1 -50 -2 -95 -7 -100 -5 -4 -67 -11 -139 -15 -71 -3 -143 -8 -160 -10 -16 -2
-75 -7 -130 -11 -55 -3 -116 -8 -135 -9 -168 -12 -219 -17 -245 -20 -16 -3
-64 -7 -105 -10 -41 -3 -95 -7 -120 -10 -25 -3 -70 -7 -101 -10 -31 -2 -69 -6
-85 -9 -16 -3 -56 -8 -89 -11 -33 -3 -76 -8 -95 -10 -45 -6 -124 -15 -175 -20
-22 -3 -58 -8 -80 -12 -22 -4 -43 -6 -47 -5 -4 1 -31 -3 -60 -8 -29 -6 -76
-13 -104 -15 -28 -3 -61 -8 -74 -10 -14 -3 -40 -7 -60 -10 -20 -3 -45 -7 -55
-9 -21 -4 -89 -15 -140 -22 -16 -2 -41 -6 -55 -9 -14 -3 -38 -7 -55 -10 -16
-3 -40 -7 -51 -9 -12 -2 -37 -7 -55 -10 -19 -3 -43 -8 -54 -10 -11 -2 -90 -18
-175 -36 -85 -18 -162 -33 -170 -35 -122 -26 -505 -122 -557 -140 -23 -8 -52
-16 -65 -19 -13 -3 -68 -19 -123 -36 -55 -17 -120 -37 -145 -45 -25 -7 -82
-26 -128 -42 l-82 -30 -11 41 c-6 23 -12 46 -14 51 -1 6 -5 18 -9 27 -4 9 -8
23 -10 31 -3 25 -75 141 -114 183 -104 114 -248 190 -397 210 -94 13 -93 13
-425 -84 -79 -23 -76 -4 -35 -227 9 -49 18 -101 21 -115 3 -14 9 -47 13 -75 5
-27 12 -61 15 -75 3 -14 7 -38 10 -55 5 -38 34 -196 46 -255 5 -25 12 -60 15
-77 10 -67 16 -100 30 -168 7 -38 16 -88 20 -109 3 -22 7 -42 9 -44 3 -2 95
38 206 88 111 50 252 111 313 136 62 25 121 49 132 54 36 17 426 156 465 165
3 1 12 5 20 8 19 8 278 87 304 92 10 3 58 15 105 29 108 31 276 73 316 80 17
2 30 5 30 6 0 1 11 4 24 6 14 2 52 12 85 20 34 9 75 18 91 21 40 7 60 11 60
13 0 2 24 7 75 15 24 4 47 8 50 10 3 2 24 6 46 9 22 4 51 9 64 11 54 11 247
45 285 50 22 3 51 8 65 11 14 2 36 6 49 9 14 2 46 7 72 10 27 3 68 9 92 14 24
4 55 7 70 7 15 -1 27 1 27 4 0 3 8 6 18 7 38 2 148 14 162 17 13 4 47 8 160
21 14 2 52 6 85 9 33 4 78 9 100 11 22 2 72 7 110 11 39 4 81 8 95 9 71 7 190
18 230 21 25 1 45 3 45 4 0 1 23 3 50 4 43 3 148 11 275 21 33 3 143 11 275
20 33 2 103 7 155 10 52 3 127 8 165 10 103 7 238 15 340 20 106 6 222 13 320
20 39 2 115 7 169 10 54 2 101 6 103 8 3 4 -34 217 -61 348 -3 14 -7 39 -10
55 -2 16 -6 40 -9 54 -4 14 -8 39 -11 55 -8 51 -36 207 -46 249 -5 23 -12 64
-16 91 -3 28 -8 52 -9 55 -2 3 -6 26 -10 50 -3 25 -15 90 -25 145 -11 55 -21
111 -24 125 -2 14 -7 43 -11 65 -13 71 -15 79 -25 140 -6 33 -15 80 -20 105
-6 25 -12 59 -14 75 -3 17 -7 39 -9 50 -6 25 -19 103 -22 131 -2 12 -8 45 -14
75 -6 30 -25 128 -41 219 -16 91 -34 188 -40 215 -6 28 -12 64 -15 80 -2 17
-6 41 -9 55 -3 14 -10 54 -16 90 -7 36 -14 76 -17 90 -2 14 -6 36 -8 50 -2 14
-4 25 -5 25 -1 0 -3 9 -5 20 -1 11 -5 31 -8 45 -5 23 -19 102 -32 175 -2 17
-7 41 -10 55 -7 36 -13 69 -21 115 -3 22 -8 42 -11 45 -6 7 -64 7 -92 0z"/>
</g>
</svg>
